<svg width="540" height="425" viewBox="0 0 540 425" fill="none" xmlns="http://www.w3.org/2000/svg">
<path d="M536.538 130.516L536.275 130.011L536.078 129.682L535.946 129.419C533.792 125.281 530.376 121.939 526.195 119.877L525.099 119.394L390.552 60.6733L255.939 1.82059L254.821 1.33801C253.164 0.516703 251.319 0.150918 249.475 0.278112C247.631 0.405306 245.853 1.02091 244.325 2.06188L244.084 2.21543L243.842 2.36897L228.262 13.8851L238.342 16.8902L224.975 197.682C224.74 202.556 225.92 207.394 228.372 211.611L228.591 211.984L228.766 212.313C230.909 216.464 234.327 219.817 238.518 221.877L506.867 339.012L505.815 350.374L520.563 339.407L520.804 339.253C522.381 338.054 523.668 336.514 524.567 334.748C525.466 332.982 525.955 331.035 525.997 329.053L539.693 143.94C539.918 139.258 538.825 134.606 536.538 130.516Z" fill="white" stroke="url(#paint0_linear_52_3607)" stroke-width="0.25" stroke-miterlimit="10"/>
<path d="M494.53 351.647L223.2 233.195C215.005 229.598 208.979 218.192 209.767 207.684L223.244 25.2256C224.033 14.7185 231.308 9.10307 239.504 12.6785L510.834 131.13C519.029 134.727 525.055 146.134 524.266 156.641L510.79 339.122C510.001 349.607 502.726 355.222 494.53 351.647Z" fill="#593794"/>
<path d="M509.65 130.625L375.103 71.9043L359.238 286.433L493.347 351.164C502.112 355.003 509.891 350.199 510.614 340.416L524.31 155.303C524.483 150.216 523.193 145.187 520.594 140.813C517.995 136.438 514.197 132.903 509.65 130.625Z" fill="url(#paint1_linear_52_3607)"/>
<path d="M240.621 13.1612L375.169 71.9043L359.413 285.16L224.318 233.788C219.771 231.51 215.973 227.975 213.374 223.6C210.775 219.226 209.485 214.197 209.658 209.11L223.354 23.9973C224.077 14.1264 231.812 9.32253 240.621 13.1612Z" fill="url(#paint2_linear_52_3607)"/>
<path d="M212.813 222.469C215.308 227.379 219.352 231.327 224.318 233.7L493.413 351.164C495.359 352.163 497.539 352.617 499.723 352.478C501.906 352.339 504.011 351.613 505.815 350.374L369.055 154.447L212.813 222.469Z" fill="url(#paint3_linear_52_3607)"/>
<path d="M521.22 141.856C518.704 136.94 514.637 132.992 509.65 130.625L240.621 13.1611C238.675 12.1619 236.494 11.7078 234.311 11.8468C232.128 11.9858 230.023 12.7127 228.218 13.9508L365.023 209.878L521.22 141.856Z" fill="#593794"/>
<path d="M470.206 188.272C470.135 188.085 470.055 187.902 469.965 187.723C469.916 187.588 469.857 187.456 469.79 187.329L469.593 186.934C467.616 182.337 464.222 178.494 459.907 175.966L458.746 175.352L318.829 101.1L178.76 26.9368L177.62 26.3226C175.893 25.3191 173.931 24.7905 171.934 24.7905C169.937 24.7905 167.975 25.3191 166.247 26.3226L165.985 26.4761L165.722 26.6297L148.081 37.6632L158.687 41.6774L129.609 235.104C128.934 240.359 129.81 245.696 132.129 250.459L132.326 250.854C132.326 250.985 132.435 251.117 132.501 251.226C134.489 255.823 137.889 259.665 142.209 262.194L421.405 410.192L419.214 422.345L435.978 411.772L436.241 411.618C438.037 410.464 439.548 408.916 440.66 407.092C441.772 405.269 442.456 403.216 442.661 401.089L472.463 203.012C473.106 197.984 472.324 192.877 470.206 188.272Z" fill="white"/>
<path d="M407.074 422.761L124.81 273.206C116.285 268.687 110.719 255.921 112.407 244.69L141.792 49.4644C143.48 38.2335 151.763 32.7935 160.309 37.3122L442.574 186.824C451.098 191.365 456.642 204.131 454.955 215.34L425.591 410.565C423.904 421.84 415.62 427.28 407.074 422.761Z" fill="url(#paint4_linear_52_3607)"/>
<path d="M441.412 186.232L301.474 112.068L266.917 341.578L405.913 422.147C415.094 427.017 423.816 422.476 425.372 412.013L455.174 213.958C455.791 208.501 454.821 202.981 452.379 198.063C449.938 193.144 446.13 189.036 441.412 186.232Z" fill="url(#paint5_linear_52_3607)"/>
<path d="M161.449 37.9044L301.474 112.068L267.158 340.196L126.015 273.886C121.297 271.082 117.489 266.973 115.048 262.055C112.607 257.136 111.636 251.617 112.253 246.159L141.99 48.0386C143.567 37.5754 152.289 33.0348 161.449 37.9044Z" fill="url(#paint6_linear_52_3607)"/>
<path d="M114.489 260.812C116.78 266.296 120.817 270.869 125.971 273.82L405.913 422.147C407.927 423.379 410.235 424.045 412.594 424.075C414.954 424.106 417.278 423.501 419.324 422.323L288.151 200.38L114.489 260.812Z" fill="url(#paint7_linear_52_3607)"/>
<path d="M452.895 199.217C450.595 193.745 446.56 189.181 441.412 186.232L161.449 37.9044C159.446 36.6633 157.144 35.9913 154.789 35.9603C152.435 35.9294 150.116 36.5408 148.082 37.7289L279.254 259.671L452.895 199.217Z" fill="url(#paint8_linear_52_3607)"/>
<path d="M358.624 187.263C358.557 187.074 358.476 186.891 358.383 186.714L358.208 186.319L358.01 185.924C356.032 181.322 352.629 177.477 348.303 174.957L347.163 174.343L207.247 100.091L67.1996 25.9275L66.0382 25.3133C64.3148 24.3095 62.3565 23.7808 60.3627 23.7808C58.3688 23.7808 56.4105 24.3095 54.6871 25.3133L54.4242 25.4669L54.1612 25.6204L36.4553 36.7417L47.0394 40.7778L17.9605 234.117C17.2811 239.371 18.1573 244.71 20.4805 249.471L20.6778 249.888C20.7271 250.017 20.7857 250.141 20.8531 250.261C22.8407 254.858 26.2414 258.7 30.5606 261.229L309.757 409.139L307.676 421.292L324.439 410.719L324.702 410.543C326.503 409.393 328.017 407.847 329.13 406.022C330.242 404.198 330.924 402.143 331.123 400.014L360.925 201.959C361.556 196.941 360.758 191.847 358.624 187.263Z" fill="white"/>
<path d="M295.426 421.752L13.1616 272.197C4.61541 267.678 -0.928656 254.89 0.758665 243.681L30.1443 48.4553C31.8317 37.2024 40.1149 31.7624 48.6391 36.2811L330.926 185.815C339.45 190.334 344.994 203.122 343.307 214.331L313.943 409.556C312.256 420.831 303.95 426.271 295.426 421.752Z" fill="#98D4C5"/>
<path d="M329.764 185.201L189.717 111.037L155.247 340.547L294.265 421.16C303.446 426.008 312.146 421.467 313.724 411.026L343.526 212.971C344.132 207.509 343.158 201.987 340.718 197.064C338.278 192.14 334.476 188.022 329.764 185.201Z" fill="url(#paint9_linear_52_3607)"/>
<path d="M49.8005 36.8733L189.717 111.037L155.4 339.165L14.4106 272.811C9.69301 270.007 5.88478 265.898 3.44354 260.98C1.0023 256.061 0.0319363 250.542 0.649048 245.084L30.4291 47.0075C31.9412 36.5662 40.7065 32.0256 49.8005 36.8733Z" fill="url(#paint10_linear_52_3607)"/>
<path d="M2.84033 259.803C5.16157 265.296 9.22858 269.868 14.4105 272.811L294.265 421.16C296.279 422.391 298.586 423.057 300.946 423.088C303.306 423.119 305.63 422.514 307.676 421.336L176.569 199.349L2.84033 259.803Z" fill="url(#paint11_linear_52_3607)"/>
<path d="M341.225 198.208C338.935 192.731 334.907 188.16 329.764 185.201L49.8006 36.8734C47.7866 35.6421 45.4788 34.9761 43.1191 34.9452C40.7595 34.9143 38.435 35.5198 36.3896 36.6979L167.584 258.662L341.225 198.208Z" fill="#98D4C5"/>
<defs>
<linearGradient id="paint0_linear_52_3607" x1="382.334" y1="350.967" x2="382.334" y2="-6.05693e-05" gradientUnits="userSpaceOnUse">
<stop offset="0.77" stop-color="#593794"/>
<stop offset="0.87" stop-color="#573C97"/>
<stop offset="0.98" stop-color="#52499E"/>
<stop offset="1" stop-color="#514CA0"/>
</linearGradient>
<linearGradient id="paint1_linear_52_3607" x1="556.04" y1="484.997" x2="369.523" y2="212.264" gradientUnits="userSpaceOnUse">
<stop offset="0.77" stop-color="#4764AD"/>
<stop offset="0.84" stop-color="#495FAA"/>
<stop offset="0.91" stop-color="#4E52A3"/>
<stop offset="0.99" stop-color="#573C97"/>
<stop offset="1" stop-color="#593794"/>
</linearGradient>
<linearGradient id="paint2_linear_52_3607" x1="169.269" y1="283.563" x2="374.139" y2="167.851" gradientUnits="userSpaceOnUse">
<stop offset="0.77" stop-color="#4764AD"/>
<stop offset="0.83" stop-color="#495FAA"/>
<stop offset="0.91" stop-color="#4E52A3"/>
<stop offset="0.99" stop-color="#573C97"/>
<stop offset="1" stop-color="#593794"/>
</linearGradient>
<linearGradient id="paint3_linear_52_3607" x1="325.04" y1="513.675" x2="447.919" y2="230.656" gradientUnits="userSpaceOnUse">
<stop offset="0.77" stop-color="#593794"/>
<stop offset="0.87" stop-color="#573C97"/>
<stop offset="0.98" stop-color="#52499E"/>
<stop offset="1" stop-color="#514CA0"/>
</linearGradient>
<linearGradient id="paint4_linear_52_3607" x1="110.642" y1="157.627" x2="442.424" y2="208.133" gradientUnits="userSpaceOnUse">
<stop stop-color="#7BDAFF"/>
<stop offset="1" stop-color="#59BDEF"/>
</linearGradient>
<linearGradient id="paint5_linear_52_3607" x1="464.859" y1="580.636" x2="286.479" y2="272.656" gradientUnits="userSpaceOnUse">
<stop offset="0.77" stop-color="#59BDEF"/>
<stop offset="0.85" stop-color="#55B8EB"/>
<stop offset="0.93" stop-color="#49ABE1"/>
<stop offset="1" stop-color="#3A9BD5"/>
</linearGradient>
<linearGradient id="paint6_linear_52_3607" x1="53.5074" y1="305.303" x2="283.329" y2="197.391" gradientUnits="userSpaceOnUse">
<stop offset="0.77" stop-color="#59BDEF"/>
<stop offset="0.85" stop-color="#55B8EB"/>
<stop offset="0.93" stop-color="#49ABE1"/>
<stop offset="1" stop-color="#3A9BD5"/>
</linearGradient>
<linearGradient id="paint7_linear_52_3607" x1="214.101" y1="593.004" x2="368.92" y2="298.409" gradientUnits="userSpaceOnUse">
<stop offset="0.77" stop-color="#3A9BD5"/>
<stop offset="0.84" stop-color="#3896D2"/>
<stop offset="0.92" stop-color="#3189C9"/>
<stop offset="1" stop-color="#2573BA"/>
</linearGradient>
<linearGradient id="paint8_linear_52_3607" x1="188.373" y1="17.1394" x2="505.344" y2="240.651" gradientUnits="userSpaceOnUse">
<stop stop-color="#7BDAFF"/>
<stop offset="1" stop-color="#59BDEF"/>
</linearGradient>
<linearGradient id="paint9_linear_52_3607" x1="352.726" y1="579.963" x2="174.318" y2="271.984" gradientUnits="userSpaceOnUse">
<stop offset="0.77" stop-color="#98D4C5"/>
<stop offset="0.82" stop-color="#95CFC1"/>
<stop offset="0.88" stop-color="#8AC2B5"/>
<stop offset="0.95" stop-color="#7AACA0"/>
<stop offset="1" stop-color="#68948B"/>
</linearGradient>
<linearGradient id="paint10_linear_52_3607" x1="-58.6254" y1="304.63" x2="171.196" y2="196.718" gradientUnits="userSpaceOnUse">
<stop offset="0.77" stop-color="#93CDBF"/>
<stop offset="0.83" stop-color="#90C8BB"/>
<stop offset="0.9" stop-color="#85BBAF"/>
<stop offset="0.97" stop-color="#74A59A"/>
<stop offset="1" stop-color="#6A978E"/>
</linearGradient>
<linearGradient id="paint11_linear_52_3607" x1="101.947" y1="592.345" x2="256.776" y2="297.731" gradientUnits="userSpaceOnUse">
<stop offset="0.77" stop-color="#98D4C5"/>
<stop offset="0.83" stop-color="#95CFC1"/>
<stop offset="0.9" stop-color="#8BC2B5"/>
<stop offset="0.97" stop-color="#7AACA1"/>
<stop offset="1" stop-color="#72A197"/>
</linearGradient>
</defs>
</svg>
